<svg width="10" height="10" viewBox="0 0 6 6" fill="none" xmlns="http://www.w3.org/2000/svg">
<path fill-rule="evenodd" clip-rule="evenodd" d="M4.66737 0H1.33219C0.57605 0.0266117 -0.0180192 0.669432 0.000523163 1.44095V5.64143C-0.00721948 5.78256 0.0715592 5.91383 0.198305 5.97099C0.325051 6.02815 0.473253 5.99924 0.570382 5.89841L1.28121 5.1244C1.41664 4.9795 1.60382 4.89673 1.80008 4.89495H4.65537C5.02401 4.8854 5.37355 4.72572 5.626 4.45154C5.87845 4.17737 6.01279 3.81152 5.99904 3.43564V1.44095C6.01758 0.669432 5.42351 0.0266117 4.66737 0ZM1.87506 1.59698H3.37469C3.49892 1.59698 3.59963 1.69971 3.59963 1.82643C3.59963 1.95315 3.49892 2.05588 3.37469 2.05588H1.87506C1.75083 2.05588 1.65011 1.95315 1.65011 1.82643C1.65011 1.69971 1.75083 1.59698 1.87506 1.59698ZM1.87506 3.27962H4.1245C4.24873 3.27962 4.34945 3.17689 4.34945 3.05017C4.34945 2.92344 4.24873 2.82071 4.1245 2.82071H1.87506C1.75083 2.82071 1.65011 2.92344 1.65011 3.05017C1.65011 3.17689 1.75083 3.27962 1.87506 3.27962Z" fill="#4B4B4B"/>
</svg>
