<svg width="12" height="12" viewBox="0 0 12 12" fill="none" xmlns="http://www.w3.org/2000/svg">
<path d="M3.9 10.8H1.8C1.46863 10.8 1.2 10.5314 1.2 10.2V8.1C1.2 7.76863 0.931371 7.5 0.6 7.5C0.268629 7.5 0 7.76863 0 8.1V10.2C0 11.1941 0.805887 12 1.8 12H3.9C4.23137 12 4.5 11.7314 4.5 11.4C4.5 11.0686 4.23137 10.8 3.9 10.8Z" fill="#4B4B4B"/>
<path d="M11.4 7.5C11.0686 7.5 10.8 7.76863 10.8 8.1V10.2C10.8 10.5314 10.5314 10.8 10.2 10.8H8.1C7.76863 10.8 7.5 11.0686 7.5 11.4C7.5 11.7314 7.76863 12 8.1 12H10.2C11.1941 12 12 11.1941 12 10.2V8.1C12 7.76863 11.7314 7.5 11.4 7.5Z" fill="#4B4B4B"/>
<path d="M10.2 0H8.1C7.76863 0 7.5 0.268629 7.5 0.6C7.5 0.931371 7.76863 1.2 8.1 1.2H10.2C10.5314 1.2 10.8 1.46863 10.8 1.8V3.9C10.8 4.23137 11.0686 4.5 11.4 4.5C11.7314 4.5 12 4.23137 12 3.9V1.8C12 0.805887 11.1941 0 10.2 0Z" fill="#4B4B4B"/>
<path d="M3.9 0H1.8C0.805887 0 0 0.805887 0 1.8V3.9C0 4.23137 0.268629 4.5 0.6 4.5C0.931371 4.5 1.2 4.23137 1.2 3.9V1.8C1.2 1.46863 1.46863 1.2 1.8 1.2H3.9C4.23137 1.2 4.5 0.931371 4.5 0.6C4.5 0.268629 4.23137 0 3.9 0Z" fill="#4B4B4B"/>
</svg>
