<svg width="8" height="10" viewBox="0 0 4 8" fill="none" xmlns="http://www.w3.org/2000/svg">
<path d="M2.20572 0.700096L0.060786 4.46854C-0.0204818 4.60793 -0.0202463 4.78047 0.0614018 4.91964C0.14305 5.05881 0.293354 5.14285 0.454351 5.13936H1.57995C1.72467 5.13831 1.86383 5.19521 1.96654 5.29745C2.06925 5.39969 2.12701 5.5388 2.127 5.68391V7.10842C2.12834 7.28147 2.24198 7.43346 2.40728 7.48327C2.57258 7.53308 2.75096 7.46909 2.84723 7.32545L4.92525 4.20021C5.0162 4.0627 5.02477 3.88631 4.94759 3.7406C4.8704 3.59488 4.71985 3.50322 4.5553 3.50176H3.4848C3.18485 3.50176 2.94168 3.25796 2.94168 2.95721V0.897397C2.94294 0.717698 2.82294 0.559847 2.64979 0.513428C2.47664 0.46701 2.29408 0.54375 2.20572 0.700096Z" fill="#4B4B4B"/>
</svg>
