<svg width="12" height="14" viewBox="0 0 12 14" fill="none" xmlns="http://www.w3.org/2000/svg">
<path d="M4.125 3L6 1M6 1L7.875 3M6 1V7.66667M2.87514 5.66667C2.29272 5.66667 2.0015 5.66667 1.77179 5.76816C1.4655 5.90349 1.22202 6.1632 1.09515 6.48991C1 6.73494 1 7.04541 1 7.66667V10.8667C1 11.6134 1 11.9865 1.13624 12.2717C1.25608 12.5226 1.44717 12.727 1.68237 12.8548C1.9495 13 2.29937 13 2.99807 13H9.00224C9.70093 13 10.0503 13 10.3174 12.8548C10.5526 12.727 10.744 12.5226 10.8639 12.2717C11 11.9868 11 11.614 11 10.8687V7.66667C11 7.04541 10.9999 6.73494 10.9048 6.48991C10.7779 6.1632 10.5346 5.90349 10.2284 5.76816C9.99864 5.66667 9.70743 5.66667 9.125 5.66667" stroke="#4B4B4B" stroke-linecap="round" stroke-linejoin="round"/>
</svg>
