<svg width="16" height="16" viewBox="0 0 16 16" fill="none" xmlns="http://www.w3.org/2000/svg">
<path d="M1 8H4.88889M1 8C1 11.866 4.13401 15 8 15M1 8C1 4.13401 4.13401 1 8 1M4.88889 8H11.1111M4.88889 8C4.88889 11.866 6.28178 15 8 15M4.88889 8C4.88889 4.13401 6.28178 1 8 1M11.1111 8H15M11.1111 8C11.1111 4.13401 9.71822 1 8 1M11.1111 8C11.1111 11.866 9.71822 15 8 15M15 8C15 4.13401 11.866 1 8 1M15 8C15 11.866 11.866 15 8 15" stroke="#4B4B4B" stroke-linecap="round" stroke-linejoin="round"/>
</svg>
