<svg width="14" height="16" viewBox="0 0 14 16" fill="none" xmlns="http://www.w3.org/2000/svg">
<path d="M4.75 3.33333L7 1M7 1L9.25 3.33333M7 1V8.77778M3.25017 6.44444C2.55126 6.44444 2.2018 6.44444 1.92615 6.56285C1.55861 6.72073 1.26642 7.02374 1.11418 7.40489C1 7.69076 1 8.05298 1 8.77778V12.5111C1 13.3823 1 13.8176 1.16349 14.1504C1.3073 14.443 1.5366 14.6815 1.81885 14.8306C2.1394 15 2.55925 15 3.39768 15H10.6027C11.4411 15 11.8604 15 12.1809 14.8306C12.4632 14.6815 12.6929 14.443 12.8367 14.1504C13 13.8179 13 13.383 13 12.5135V8.77778C13 8.05298 12.9999 7.69076 12.8857 7.40489C12.7335 7.02374 12.4416 6.72073 12.074 6.56285C11.7984 6.44444 11.4489 6.44444 10.75 6.44444" stroke="#FFBB00" stroke-linecap="round" stroke-linejoin="round"/>
</svg>
