<svg width="16" height="15" viewBox="0 0 16 15" fill="none" xmlns="http://www.w3.org/2000/svg">
<path d="M0.13118 6.11716C-0.12384 5.88531 0.0146872 5.46616 0.359624 5.42595L5.24721 4.85602C5.38779 4.83963 5.5099 4.75284 5.5692 4.62646L7.63071 0.232599C7.7762 -0.0774932 8.2246 -0.0775527 8.37009 0.232539L10.4316 4.62636C10.4909 4.75275 10.6122 4.83977 10.7528 4.85616L15.6407 5.42595C15.9856 5.46616 16.1237 5.88543 15.8687 6.11729L12.2556 9.40279C12.1517 9.49728 12.1054 9.63794 12.133 9.77444L13.0919 14.5204C13.1596 14.8553 12.797 15.1148 12.4939 14.948L8.19918 12.584C8.07565 12.516 7.92558 12.5164 7.80204 12.5843L3.50688 14.9474C3.20378 15.1142 2.84053 14.8553 2.90823 14.5204L3.86729 9.77474C3.89488 9.63823 3.84872 9.49726 3.74479 9.40276L0.13118 6.11716Z" fill="#FFBB00"/>
</svg>
