<svg width="13" height="16" viewBox="0 0 14 16" fill="none" xmlns="http://www.w3.org/2000/svg">
<path d="M5.21322 12.1111C5.7655 12.1111 6.21322 11.6634 6.21322 11.1111C6.21322 10.5588 5.7655 10.1111 5.21322 10.1111V12.1111ZM1.32433 11.1111V10.1111C0.772043 10.1111 0.324327 10.5588 0.324327 11.1111H1.32433ZM0.324327 15C0.324327 15.5523 0.772043 16 1.32433 16C1.87661 16 2.32433 15.5523 2.32433 15H0.324327ZM8.32433 3.88889C7.77204 3.88889 7.32433 4.3366 7.32433 4.88889C7.32433 5.44117 7.77204 5.88889 8.32433 5.88889V3.88889ZM12.2132 4.88889V5.88889C12.7655 5.88889 13.2132 5.44117 13.2132 4.88889H12.2132ZM13.2132 1C13.2132 0.447715 12.7655 0 12.2132 0C11.6609 0 11.2132 0.447715 11.2132 1H13.2132ZM0.0728162 5.29471C-0.134073 5.80678 0.113324 6.38961 0.625393 6.5965C1.13746 6.80339 1.72029 6.55599 1.92718 6.04392L0.0728162 5.29471ZM3.10742 2.96951L3.69591 3.77801L3.69591 3.77801L3.10742 2.96951ZM11.2821 5.37334C11.5599 5.85066 12.1721 6.0124 12.6494 5.73459C13.1268 5.45678 13.2885 4.84462 13.0107 4.3673L11.2821 5.37334ZM13.4652 10.7057C13.6721 10.1936 13.4247 9.61076 12.9126 9.40387C12.4005 9.19698 11.8177 9.44438 11.6108 9.95645L13.4652 10.7057ZM10.4306 13.0309L9.84206 12.2224L10.4306 13.0309ZM2.25544 10.6267C1.97763 10.1494 1.36547 9.98764 0.888147 10.2654C0.410822 10.5433 0.249083 11.1554 0.526893 11.6327L2.25544 10.6267ZM5.21322 10.1111H1.32433V12.1111H5.21322V10.1111ZM0.324327 11.1111V15H2.32433V11.1111H0.324327ZM8.32433 5.88889H12.2132V3.88889H8.32433V5.88889ZM13.2132 4.88889V1H11.2132V4.88889H13.2132ZM1.92718 6.04392C2.29319 5.13803 2.90598 4.35299 3.69591 3.77801L2.51893 2.16101C1.42647 2.95618 0.57899 4.04188 0.0728162 5.29471L1.92718 6.04392ZM3.69591 3.77801C4.48576 3.2031 5.42211 2.86103 6.39674 2.79117L6.25375 0.796288C4.9061 0.892888 3.61148 1.36577 2.51893 2.16101L3.69591 3.77801ZM6.39674 2.79117C7.3712 2.72132 8.3451 2.92619 9.20903 3.38265L10.1433 1.6143C8.9487 0.983105 7.60158 0.699674 6.25375 0.796288L6.39674 2.79117ZM9.20903 3.38265C10.0725 3.83889 10.7905 4.52857 11.2821 5.37334L13.0107 4.3673C12.3312 3.19982 11.3384 2.24572 10.1433 1.6143L9.20903 3.38265ZM11.6108 9.95645C11.2448 10.8623 10.632 11.6474 9.84206 12.2224L11.019 13.8394C12.1115 13.0442 12.959 11.9585 13.4652 10.7057L11.6108 9.95645ZM9.84206 12.2224C9.05226 12.7972 8.11706 13.1388 7.14237 13.2087L7.28536 15.2036C8.63296 15.107 9.92645 14.6346 11.019 13.8394L9.84206 12.2224ZM7.14237 13.2087C6.16777 13.2785 5.19294 13.0736 4.32914 12.6172L3.39482 14.3856C4.58959 15.0168 5.93768 15.3002 7.28536 15.2036L7.14237 13.2087ZM4.32914 12.6172C3.46535 12.1608 2.74695 11.4712 2.25544 10.6267L0.526893 11.6327C1.20654 12.8005 2.20004 13.7543 3.39482 14.3856L4.32914 12.6172Z" fill="black"/>
</svg>
