<svg width="18" height="17" viewBox="0 0 18 17" fill="none" xmlns="http://www.w3.org/2000/svg">
<path d="M1.35962 6.42595L1.41751 6.92259L1.41754 6.92259L1.35962 6.42595ZM1.13118 7.11716L1.46754 6.74722L1.46753 6.74721L1.13118 7.11716ZM4.74479 10.4028L4.40842 10.7727L4.40844 10.7727L4.74479 10.4028ZM4.86729 10.7747L4.3772 10.6757L4.3772 10.6757L4.86729 10.7747ZM3.90823 15.5204L4.39832 15.6194L4.39832 15.6194L3.90823 15.5204ZM4.50688 15.9474L4.26586 15.5094L4.26582 15.5094L4.50688 15.9474ZM8.80204 13.5843L9.04306 14.0224L9.04311 14.0224L8.80204 13.5843ZM9.19918 13.584L9.44029 13.146L9.44025 13.146L9.19918 13.584ZM13.4939 15.948L13.2528 16.3861L13.2528 16.3861L13.4939 15.948ZM14.0919 15.5204L13.6018 15.6194L13.6018 15.6194L14.0919 15.5204ZM13.133 10.7744L13.6231 10.6754L13.6231 10.6754L13.133 10.7744ZM13.2556 10.4028L13.5919 10.7727L13.592 10.7727L13.2556 10.4028ZM16.8687 7.11729L16.5324 6.74733L16.5323 6.74736L16.8687 7.11729ZM16.6407 6.42595L16.5828 6.92259L16.5828 6.92259L16.6407 6.42595ZM11.7528 5.85616L11.8107 5.35952L11.8107 5.35952L11.7528 5.85616ZM11.4316 5.62636L11.8843 5.41399L11.8843 5.41399L11.4316 5.62636ZM9.37009 1.23254L8.91744 1.44491L8.91744 1.44492L9.37009 1.23254ZM8.63071 1.2326L9.08337 1.44498L9.08337 1.44497L8.63071 1.2326ZM6.5692 5.62646L6.11654 5.41408L6.11654 5.41408L6.5692 5.62646ZM6.24721 5.85602L6.18932 5.35938L6.1893 5.35938L6.24721 5.85602ZM1.30173 5.92932C0.543841 6.01766 0.212436 6.95763 0.794829 7.48712L1.46753 6.74721C1.47825 6.75695 1.49099 6.7755 1.49685 6.79982C1.50217 6.82184 1.50019 6.84138 1.49516 6.85659C1.49014 6.8718 1.48056 6.8873 1.46517 6.9003C1.44812 6.9147 1.42952 6.92119 1.41751 6.92259L1.30173 5.92932ZM0.794816 7.48711L4.40842 10.7727L5.08115 10.0328L1.46754 6.74722L0.794816 7.48711ZM4.40844 10.7727C4.38267 10.7493 4.36979 10.7124 4.3772 10.6757L5.35738 10.8738C5.41997 10.5641 5.31477 10.2452 5.08114 10.0328L4.40844 10.7727ZM4.3772 10.6757L3.41813 15.4213L4.39832 15.6194L5.35738 10.8738L4.3772 10.6757ZM3.41813 15.4213C3.2617 16.1953 4.09144 16.7468 4.74794 16.3855L4.26582 15.5094C4.27738 15.503 4.29578 15.4982 4.31584 15.4998C4.3337 15.5012 4.34799 15.5073 4.35882 15.515C4.36964 15.5227 4.38198 15.5357 4.39064 15.556C4.4003 15.5787 4.40174 15.6025 4.39832 15.6194L3.41813 15.4213ZM4.7479 16.3855L9.04306 14.0224L8.56102 13.1463L4.26586 15.5094L4.7479 16.3855ZM9.04311 14.0224C9.01731 14.0366 8.98545 14.0371 8.95812 14.0221L9.44025 13.146C9.16585 12.995 8.83384 12.9961 8.56098 13.1463L9.04311 14.0224ZM8.95807 14.022L13.2528 16.3861L13.735 15.51L9.44029 13.146L8.95807 14.022ZM13.2528 16.3861C13.9114 16.7485 14.738 16.1931 14.582 15.4213L13.6018 15.6194C13.5984 15.6026 13.5998 15.5791 13.6094 15.5566C13.6179 15.5365 13.6302 15.5235 13.641 15.5157C13.6519 15.5079 13.6663 15.5018 13.6844 15.5003C13.7048 15.4987 13.7233 15.5036 13.735 15.51L13.2528 16.3861ZM14.582 15.4214L13.6231 10.6754L12.6429 10.8735L13.6018 15.6194L14.582 15.4214ZM13.6231 10.6754C13.6306 10.7126 13.6173 10.7497 13.5919 10.7727L12.9192 10.0328C12.6861 10.2448 12.5802 10.5632 12.6429 10.8735L13.6231 10.6754ZM13.592 10.7727L17.2051 7.48721L16.5323 6.74736L12.9192 10.0329L13.592 10.7727ZM17.2051 7.48724C17.7866 6.95851 17.4576 6.01779 16.6985 5.92932L16.5828 6.92259C16.5707 6.92118 16.552 6.91466 16.5349 6.90018C16.5194 6.8871 16.5098 6.87154 16.5048 6.85632C16.4998 6.84111 16.4979 6.82163 16.5031 6.79971C16.509 6.7755 16.5217 6.75704 16.5324 6.74733L17.2051 7.48724ZM16.6985 5.92932L11.8107 5.35952L11.6949 6.3528L16.5828 6.92259L16.6985 5.92932ZM11.8107 5.35952C11.84 5.36293 11.8692 5.3818 11.8843 5.41399L10.979 5.83874C11.1126 6.12369 11.3845 6.31661 11.6949 6.3528L11.8107 5.35952ZM11.8843 5.41399L9.82275 1.02016L8.91744 1.44492L10.979 5.83874L11.8843 5.41399ZM9.82275 1.02016C9.49726 0.32643 8.50341 0.326774 8.17806 1.02022L9.08337 1.44497C9.07644 1.45973 9.06248 1.47609 9.04394 1.48719C9.02747 1.49705 9.01228 1.5 9.00045 1.5C8.98862 1.5 8.97341 1.49705 8.95691 1.48718C8.93835 1.47607 8.92437 1.45969 8.91744 1.44491L9.82275 1.02016ZM8.17806 1.02022L6.11654 5.41408L7.02185 5.83884L9.08337 1.44498L8.17806 1.02022ZM6.11654 5.41408C6.13241 5.38025 6.16188 5.36258 6.18932 5.35938L6.3051 6.35265C6.61371 6.31668 6.88739 6.12543 7.02185 5.83883L6.11654 5.41408ZM6.1893 5.35938L1.30171 5.92932L1.41754 6.92259L6.30512 6.35265L6.1893 5.35938Z" fill="#4B4B4B"/>
</svg>
