<svg width="19" height="19" viewBox="0 0 19 19" fill="none" xmlns="http://www.w3.org/2000/svg">
<path d="M13.0404 9.26266C13.431 8.87214 13.431 8.23897 13.0404 7.84845C12.6499 7.45792 12.0168 7.45792 11.6262 7.84845L13.0404 9.26266ZM9.5 11.3889L8.79289 12.096C9.18342 12.4865 9.81658 12.4865 10.2071 12.096L9.5 11.3889ZM7.37377 7.84845C6.98325 7.45792 6.35008 7.45792 5.95956 7.84845C5.56904 8.23897 5.56904 8.87214 5.95956 9.26266L7.37377 7.84845ZM19 9.5C19 4.25329 14.7467 0 9.5 0V2C13.6421 2 17 5.35786 17 9.5H19ZM9.5 0C4.25329 0 0 4.25329 0 9.5H2C2 5.35786 5.35786 2 9.5 2V0ZM0 9.5C0 14.7467 4.25329 19 9.5 19V17C5.35786 17 2 13.6421 2 9.5H0ZM9.5 19C14.7467 19 19 14.7467 19 9.5H17C17 13.6421 13.6421 17 9.5 17V19ZM11.6262 7.84845L8.79289 10.6818L10.2071 12.096L13.0404 9.26266L11.6262 7.84845ZM10.2071 10.6818L7.37377 7.84845L5.95956 9.26266L8.79289 12.096L10.2071 10.6818Z" fill="#FFBB00"/>
</svg>
