<svg width="34" height="34" viewBox="0 0 34 34" fill="none" xmlns="http://www.w3.org/2000/svg">
<rect width="34" height="34" rx="17" fill="#191919"/>
<path fill-rule="evenodd" clip-rule="evenodd" d="M16.44 7H17.56C22.7736 7 27 11.2264 27 16.44V17.56C27 22.7736 22.7736 27 17.56 27H16.44C11.2264 27 7 22.7736 7 17.56V16.44C7 11.2264 11.2264 7 16.44 7ZM17.75 17.75H21C21.4142 17.75 21.75 17.4142 21.75 17C21.75 16.5858 21.4142 16.25 21 16.25H17.75V13C17.75 12.5858 17.4142 12.25 17 12.25C16.5858 12.25 16.25 12.5858 16.25 13V16.25H13C12.5858 16.25 12.25 16.5858 12.25 17C12.25 17.4142 12.5858 17.75 13 17.75H16.25V21C16.25 21.4142 16.5858 21.75 17 21.75C17.4142 21.75 17.75 21.4142 17.75 21V17.75Z" fill="#FFBB00"/>
</svg>
